<?xml version="1.0" encoding="UTF-8"?>
<!DOCTYPE svg PUBLIC "-//W3C//DTD SVG 1.1//EN" "http://www.w3.org/Graphics/SVG/1.1/DTD/svg11.dtd">
<!-- Creator: CorelDRAW 2020 (64 Bit) -->
<svg xmlns="http://www.w3.org/2000/svg" xml:space="preserve" width="69mm" height="13mm" version="1.1" style="shape-rendering:geometricPrecision; text-rendering:geometricPrecision; image-rendering:optimizeQuality; fill-rule:evenodd; clip-rule:evenodd"
viewBox="0 0 6900 1300"
 xmlns:xlink="http://www.w3.org/1999/xlink"
 xmlns:xodm="http://www.corel.com/coreldraw/odm/2003">
 <defs>
  <style type="text/css">
   <![CDATA[
    .fil6 {fill:none}
    .fil5 {fill:#FEFEFE}
    .fil2 {fill:#FFCC29}
    .fil4 {fill:#F58634}
    .fil0 {fill:#FEFEFE;fill-rule:nonzero}
    .fil3 {fill:url(#id10)}
    .fil8 {fill:url(#id11)}
    .fil1 {fill:url(#id12)}
    .fil7 {fill:url(#id13)}
   ]]>
  </style>
     <clipPath id="id0">
      <path d="M145.16 391.01c-22.39,-23.2 -19.87,-57.31 -4.64,-85.15 18.3,-33.45 54.99,-64.94 84.74,-87.95 280.99,-217.33 687.76,-46.84 741.32,301.31 22.64,147.13 -24.84,273.04 -114.67,388.21 -51.53,66.08 -105.9,120.67 -166.81,177.64 -33.85,31.65 -67.35,63.14 -99.01,97.04 -22.62,24.21 -49.66,52.33 -85.99,48.65 -21.93,-2.22 -37.64,-14.65 -52.38,-29.81 -12.47,-12.84 -24.09,-26.21 -36.9,-38.81 -26.02,-25.61 -53.8,-49.93 -80.79,-74.55 -31.55,-28.76 -66.01,-59.88 -93.1,-92.82 -29.12,-35.41 -59.59,-69.65 -87.34,-106.18 -63.03,-82.98 -100.82,-165.09 -107.26,-270.52 -5.15,-84.19 20.55,-171.3 93.06,-220.79 3.23,-2.21 6.48,-4.29 9.77,-6.27z"/>
     </clipPath>
       <mask id="id1">
  <linearGradient id="id2" gradientUnits="userSpaceOnUse" x1="28.5" y1="167.88" x2="589.74" y2="894.48">
   <stop offset="0" style="stop-opacity:1; stop-color:white"/>
   <stop offset="1" style="stop-opacity:0; stop-color:white"/>
  </linearGradient>
        <rect style="fill:url(#id2)" x="130.09" y="458.21" width="606.46" height="614.19"/>
       </mask>
       <mask id="id3">
  <linearGradient id="id4" gradientUnits="userSpaceOnUse" x1="720.18" y1="208.92" x2="363.96" y2="1001.84">
   <stop offset="0" style="stop-opacity:1; stop-color:white"/>
   <stop offset="1" style="stop-opacity:0; stop-color:white"/>
  </linearGradient>
        <rect style="fill:url(#id4)" x="-277.52" y="395.28" width="1312.52" height="1335.96"/>
       </mask>
     <clipPath id="id5">
      <path d="M135.02 379.15c-22.39,-23.2 -19.87,-57.31 -4.64,-85.15 18.3,-33.45 54.99,-64.94 84.74,-87.95 280.99,-217.33 687.76,-46.84 741.32,301.31 22.64,147.13 -24.84,273.04 -114.67,388.21 -51.53,66.08 -105.9,120.67 -166.81,177.63 -33.85,31.66 -67.35,63.15 -99.01,97.05 -22.62,24.21 -49.66,52.33 -85.99,48.65 -21.93,-2.22 -37.64,-14.65 -52.38,-29.81 -12.47,-12.84 -24.09,-26.21 -36.9,-38.81 -26.02,-25.61 -53.8,-49.93 -80.79,-74.55 -31.55,-28.76 -66.01,-59.88 -93.1,-92.82 -29.12,-35.41 -59.59,-69.65 -87.34,-106.18 -63.03,-82.98 -100.82,-165.09 -107.26,-270.52 -5.15,-84.19 20.55,-171.3 93.06,-220.79 3.23,-2.21 6.48,-4.29 9.77,-6.27z"/>
     </clipPath>
       <mask id="id6">
  <linearGradient id="id7" gradientUnits="userSpaceOnUse" x1="18.36" y1="156.02" x2="579.6" y2="882.61">
   <stop offset="0" style="stop-opacity:1; stop-color:white"/>
   <stop offset="1" style="stop-opacity:0; stop-color:white"/>
  </linearGradient>
        <rect style="fill:url(#id7)" x="119.95" y="446.35" width="606.46" height="614.19"/>
       </mask>
       <mask id="id8">
  <linearGradient id="id9" gradientUnits="userSpaceOnUse" x1="710.04" y1="197.06" x2="353.82" y2="989.98">
   <stop offset="0" style="stop-opacity:1; stop-color:white"/>
   <stop offset="1" style="stop-opacity:0; stop-color:white"/>
  </linearGradient>
        <rect style="fill:url(#id9)" x="-287.66" y="383.43" width="1312.51" height="1335.95"/>
       </mask>
  <linearGradient id="id10" gradientUnits="userSpaceOnUse" x1="474" y1="1255.23" x2="476.93" y2="97.55">
   <stop offset="0" style="stop-opacity:1; stop-color:#2559A6"/>
   <stop offset="1" style="stop-opacity:1; stop-color:#0098DA"/>
  </linearGradient>
  <linearGradient id="id11" gradientUnits="userSpaceOnUse" xlink:href="#id10" x1="463.86" y1="1243.37" x2="466.79" y2="85.69">
  </linearGradient>
  <linearGradient id="id12" gradientUnits="userSpaceOnUse" x1="5881.09" y1="1250.45" x2="5738.08" y2="95.81">
   <stop offset="0" style="stop-opacity:1; stop-color:#FFF212"/>
   <stop offset="1" style="stop-opacity:1; stop-color:#FFCC29"/>
  </linearGradient>
  <linearGradient id="id13" gradientUnits="userSpaceOnUse" xlink:href="#id12" x1="633.84" y1="1296.12" x2="285.07" y2="32.92">
  </linearGradient>
 </defs>
 <g id="Camada_x0020_1">
  <metadata id="CorelCorpID_0Corel-Layer"/>
  <g id="_2106825235776">
   <path class="fil0" d="M1155.6 1006.79l464.8 0 0 -123.79 -318.01 0 0 -532.66 -146.79 0 0 656.45zm723.77 7.51c154.93,0 267.28,-107.85 267.28,-259.78 0,-151.92 -112.35,-259.76 -267.28,-259.76 -154.93,0 -268.18,107.84 -268.18,259.76 0,151.93 113.25,259.78 268.18,259.78zm0 -120.05c-70.67,0 -125.03,-52.51 -125.03,-139.73 0,-87.21 54.36,-139.73 125.03,-139.73 70.67,0 124.13,52.52 124.13,139.73 0,87.22 -53.46,139.73 -124.13,139.73zm555.24 120.05c102.38,0 183.02,-46.9 218.36,-127.54l-109.63 -61.9c-26.28,48.77 -65.24,69.39 -109.63,69.39 -71.58,0 -127.75,-51.57 -127.75,-139.73 0,-88.15 56.17,-139.73 127.75,-139.73 44.39,0 83.35,21.57 109.63,69.4l109.63 -60.96c-35.34,-82.52 -115.98,-128.47 -218.36,-128.47 -158.55,0 -271.81,107.84 -271.81,259.76 0,151.93 113.26,259.78 271.81,259.78zm454.67 -519.54c-77.91,0 -156.74,21.57 -210.2,60.95l50.75 102.22c35.33,-29.07 88.79,-46.89 140.43,-46.89 76.1,0 112.35,36.58 112.35,99.41l-112.35 0c-148.59,0 -209.3,61.9 -209.3,150.98 0,87.22 67.96,152.87 182.12,152.87 71.58,0 122.32,-24.39 148.59,-70.34l0 62.83 132.28 0 0 -287.9c0,-152.86 -86.08,-224.13 -234.67,-224.13zm-10.87 421.07c-49.83,0 -79.73,-24.39 -79.73,-60.96 0,-33.76 20.84,-59.08 86.98,-59.08l96.95 0 0 51.58c-16.31,45.95 -57.08,68.46 -104.2,68.46zm331.45 90.96l141.34 0 0 -695.84 -141.34 0 0 695.84zm301.56 -574.87c52.55,0 87.88,-35.63 87.88,-84.4 0,-45.01 -35.33,-78.77 -87.88,-78.77 -52.55,0 -87.89,35.63 -87.89,81.59 0,45.95 35.34,81.58 87.89,81.58zm-70.67 574.87l141.34 0 0 -504.53 -141.34 0 0 504.53zm375.84 -112.54l248.26 -303.84 0 -88.15 -420.4 0 0 112.53 241.91 0 -248.25 303.85 0 88.15 434.9 0 0 -112.54 -256.42 0zm501.79 -399.49c-77.92,0 -156.74,21.57 -210.2,60.95l50.74 102.22c35.34,-29.07 88.79,-46.89 140.43,-46.89 76.11,0 112.35,36.58 112.35,99.41l-112.35 0c-148.59,0 -209.29,61.9 -209.29,150.98 0,87.22 67.95,152.87 182.11,152.87 71.58,0 122.32,-24.39 148.59,-70.34l0 62.83 132.28 0 0 -287.9c0,-152.86 -86.07,-224.13 -234.66,-224.13zm-10.87 421.07c-49.84,0 -79.73,-24.39 -79.73,-60.96 0,-33.76 20.83,-59.08 86.97,-59.08l96.95 0 0 51.58c-16.31,45.95 -57.08,68.46 -104.19,68.46z"/>
   <path class="fil1" d="M4586.44 1007.79l310.41 0c217.57,0 366.68,-126.6 366.68,-328.23 0,-201.63 -149.11,-328.23 -366.68,-328.23l-310.41 0 0 656.46zm1210.29 -380.99c-77.73,-148.78 -230.08,-177.11 -363.07,-107.63 -142.13,74.26 -197.32,225.83 -126.54,361.32 70.35,134.65 225.93,179.28 386.35,95.47 85.61,-44.73 135.75,-102.67 153.79,-173.46l-128.28 -43.02c-16.86,42.67 -39.44,70.33 -83.49,93.35 -58.18,30.39 -111.15,24.21 -148.33,-14.56l327.49 -171.1c-5.68,-12.9 -11.84,-28.73 -17.92,-40.37zm-303.62 4.15c49.05,-25.62 99.59,-13.94 132.65,29.1l-184.52 96.4c-15.61,-52.15 2.84,-99.88 51.87,-125.5zm-720.99 228.67l0 -360.12 117.23 0c111.6,0 186.62,66.58 186.62,180.06 0,113.47 -75.02,180.06 -186.62,180.06l-117.23 0zm1424.57 -368.56c-63.77,0 -120.98,21.57 -161.3,63.77l0 -55.33 -169.74 0 0 508.29 178.18 0 0 -245.7c0,-84.41 44.07,-120.05 101.28,-120.05 51.58,0 83.46,30.96 83.46,104.1l0 261.65 178.19 0 0 -290.72c0,-157.55 -90.97,-226.01 -210.07,-226.01zm583.8 371.37c-15,10.32 -34.69,15.94 -54.39,15.94 -31.88,0 -53.45,-20.63 -53.45,-58.14l0 -168.81 116.28 0 0 -133.16 -116.28 0 0 -132.24 -178.19 0 0 132.24 -74.08 0 0 133.16 74.08 0 0 170.68c0,130.36 75.97,194.13 206.32,194.13 46.89,0 92.84,-9.38 123.79,-29.07l-44.08 -124.73z"/>
   <g>
    <path class="fil2" d="M145.16 391.01c-22.39,-23.2 -19.87,-57.31 -4.64,-85.15 18.3,-33.45 54.99,-64.94 84.74,-87.95 280.99,-217.33 687.76,-46.84 741.32,301.31 22.64,147.13 -24.84,273.04 -114.67,388.21 -51.53,66.08 -105.9,120.67 -166.81,177.64 -33.85,31.65 -67.35,63.14 -99.01,97.04 -22.62,24.21 -49.66,52.33 -85.99,48.65 -21.93,-2.22 -37.64,-14.65 -52.38,-29.81 -12.47,-12.84 -24.09,-26.21 -36.9,-38.81 -26.02,-25.61 -53.8,-49.93 -80.79,-74.55 -31.55,-28.76 -66.01,-59.88 -93.1,-92.82 -29.12,-35.41 -59.59,-69.65 -87.34,-106.18 -63.03,-82.98 -100.82,-165.09 -107.26,-270.52 -5.15,-84.19 20.55,-171.3 93.06,-220.79 3.23,-2.21 6.48,-4.29 9.77,-6.27z"/>
    <g style="clip-path:url(#id0)">
     <g>
      <path id="1" class="fil3" d="M246.06 442.78c74.07,-4.78 129.1,63.84 197.79,84.29 44.3,8.95 63.27,1.94 96.39,-17.01 22.04,-12.6 54.58,-37.93 74.39,-45.53 98.85,-43.57 131.75,-0.97 139.73,102.57 6.84,88.73 -33.99,154.64 -71.8,204.73 -9.01,18.15 -53.32,78.26 -92.56,79.89 -28.13,-43.79 -48.17,-197.28 -144.14,-185.63 -39.86,4.84 -50.94,35.92 -63.84,51.06 -17.57,54.76 -22.56,88.06 -10.33,149.13 8.43,42.1 26.22,104.18 45.31,132.07 78.36,9.35 -15.72,-85.98 -9.19,-205.18 5.73,-104.52 71.57,-122.65 113.85,-1.01 12.44,35.79 28.03,127.81 102.58,96.15 51.33,-21.81 128.91,-132.21 153.71,-198.5 26.16,-69.94 26.63,-165.68 -8.87,-229.95 -42.61,-77.14 -120.15,-68.53 -193.4,-21.22 -81.94,52.92 -92.32,72.17 -186.82,13.88 -167.3,-103.21 -311.31,-14.1 -300.5,162.74 9.85,161.14 101.35,249.49 184.19,350.21 39.25,47.73 122.75,116.67 170.63,163.8 58.66,57.75 54.71,79.7 109.2,21.36 90.2,-96.57 166.66,-147.82 263.16,-271.56 82.5,-105.78 126.19,-218.14 105.46,-352.84 -47.97,-311.8 -412.88,-468.79 -667.52,-271.84 -120.92,93.53 -72.52,119.97 -49.72,106.88 3.81,-2.18 17.62,-17.66 22.1,-22.95 16.31,-19.24 24.83,-25.71 42.84,-41.92 100.4,-90.35 266.96,-110.93 389.25,-55.16 179.25,81.74 261.85,270.2 208.56,458.95 -22.5,88.16 -111.12,186.54 -156.71,238.07 -14.62,16.52 -179.67,178.12 -202.71,193.65 -14.28,-9.54 -56,-47.83 -65.02,-62.86 -65.89,-49.38 -178.71,-171.17 -225.79,-243.24 -30.1,-46.08 -58.02,-96.06 -75.4,-156.29 -9.22,-31.98 -14.21,-66.86 -9.01,-99.96 9.08,-57.79 53.25,-116.7 114.19,-126.78z"/>
      <path class="fil4" style="mask:url(#id1)" d="M444.43 530.17c-23.55,10.46 -105.72,-35.18 -129.07,-44.99 -26.26,-11.04 -42.98,-16.29 -75.24,-14.24 -67.02,4.28 -97.38,36.21 -107.67,101.72 -5.2,33.1 -0.21,67.98 9.01,99.96 17.38,60.22 45.3,110.21 75.4,156.29 47.08,72.07 159.89,193.86 225.79,243.24 -12.62,-25.68 -28.94,-47.26 -42.81,-74.13 -14.42,-27.97 -26.12,-53.71 -35.82,-84.19 -24.04,-75.52 -11.27,-233.26 82.41,-244.64 95.98,-11.66 116.02,141.84 144.14,185.63 39.25,-1.63 83.56,-61.74 92.57,-79.89 3.4,-15.19 102.61,-198.41 21.08,-286.5 -38,-41.05 -61.27,-31.32 -89.02,-20.8 -19.81,7.6 -52.34,32.93 -74.38,45.53 -33.12,18.95 -52.09,25.96 -96.39,17.01z"/>
      <path class="fil5" style="mask:url(#id3)" d="M378.74 405.28c356.92,0 646.26,294.59 646.26,657.98 0,363.4 -289.34,657.98 -646.26,657.98 -356.92,0 -646.26,-294.58 -646.26,-657.98 0,-363.39 289.34,-657.98 646.26,-657.98z"/>
     </g>
    </g>
    <path class="fil6" d="M145.16 391.01c-22.39,-23.2 -19.87,-57.31 -4.64,-85.15 18.3,-33.45 54.99,-64.94 84.74,-87.95 280.99,-217.33 687.76,-46.84 741.32,301.31 22.64,147.13 -24.84,273.04 -114.67,388.21 -51.53,66.08 -105.9,120.67 -166.81,177.64 -33.85,31.65 -67.35,63.14 -99.01,97.04 -22.62,24.21 -49.66,52.33 -85.99,48.65 -21.93,-2.22 -37.64,-14.65 -52.38,-29.81 -12.47,-12.84 -24.09,-26.21 -36.9,-38.81 -26.02,-25.61 -53.8,-49.93 -80.79,-74.55 -31.55,-28.76 -66.01,-59.88 -93.1,-92.82 -29.12,-35.41 -59.59,-69.65 -87.34,-106.18 -63.03,-82.98 -100.82,-165.09 -107.26,-270.52 -5.15,-84.19 20.55,-171.3 93.06,-220.79 3.23,-2.21 6.48,-4.29 9.77,-6.27z"/>
    <path class="fil7" d="M135.02 379.15c-22.39,-23.2 -19.87,-57.31 -4.64,-85.15 18.3,-33.45 54.99,-64.94 84.74,-87.95 280.99,-217.33 687.76,-46.84 741.32,301.31 22.64,147.13 -24.84,273.04 -114.67,388.21 -51.53,66.08 -105.9,120.67 -166.81,177.63 -33.85,31.66 -67.35,63.15 -99.01,97.05 -22.62,24.21 -49.66,52.33 -85.99,48.65 -21.93,-2.22 -37.64,-14.65 -52.38,-29.81 -12.47,-12.84 -24.09,-26.21 -36.9,-38.81 -26.02,-25.61 -53.8,-49.93 -80.79,-74.55 -31.55,-28.76 -66.01,-59.88 -93.1,-92.82 -29.12,-35.41 -59.59,-69.65 -87.34,-106.18 -63.03,-82.98 -100.82,-165.09 -107.26,-270.52 -5.15,-84.19 20.55,-171.3 93.06,-220.79 3.23,-2.21 6.48,-4.29 9.77,-6.27z"/>
    <g style="clip-path:url(#id5)">
     <g>
      <path id="1" class="fil8" d="M235.92 430.92c74.07,-4.78 129.1,63.84 197.79,84.29 44.3,8.95 63.27,1.94 96.39,-17.01 22.04,-12.6 54.58,-37.93 74.39,-45.53 98.85,-43.57 131.75,-0.97 139.73,102.57 6.84,88.73 -33.99,154.64 -71.8,204.73 -9.01,18.15 -53.32,78.25 -92.56,79.89 -28.13,-43.79 -48.17,-197.28 -144.15,-185.63 -39.85,4.84 -50.93,35.91 -63.83,51.06 -17.57,54.76 -22.56,88.06 -10.33,149.13 8.43,42.1 26.22,104.18 45.31,132.07 78.36,9.35 -15.72,-85.98 -9.19,-205.18 5.72,-104.52 71.57,-122.65 113.85,-1.01 12.44,35.79 28.03,127.81 102.58,96.15 51.33,-21.81 128.91,-132.21 153.71,-198.5 26.16,-69.94 26.63,-165.68 -8.87,-229.95 -42.61,-77.14 -120.15,-68.53 -193.4,-21.22 -81.94,52.92 -92.32,72.17 -186.82,13.88 -167.3,-103.21 -311.31,-14.1 -300.5,162.74 9.85,161.14 101.35,249.49 184.19,350.21 39.25,47.73 122.75,116.67 170.63,163.8 58.66,57.75 54.71,79.7 109.2,21.36 90.2,-96.57 166.66,-147.82 263.16,-271.56 82.5,-105.78 126.19,-218.14 105.46,-352.84 -47.97,-311.8 -412.88,-468.79 -667.52,-271.84 -120.92,93.53 -72.52,119.97 -49.72,106.88 3.81,-2.18 17.62,-17.66 22.1,-22.95 16.31,-19.24 24.83,-25.72 42.84,-41.93 100.4,-90.34 266.96,-110.92 389.25,-55.15 179.25,81.74 261.85,270.2 208.56,458.95 -22.5,88.16 -111.12,186.54 -156.71,238.07 -14.62,16.52 -179.67,178.12 -202.71,193.65 -14.28,-9.54 -56,-47.83 -65.02,-62.86 -65.9,-49.38 -178.71,-171.17 -225.79,-243.24 -30.1,-46.08 -58.02,-96.06 -75.4,-156.29 -9.22,-31.98 -14.21,-66.86 -9.01,-99.96 9.08,-57.79 53.25,-116.7 114.19,-126.78z"/>
      <path class="fil4" style="mask:url(#id6)" d="M434.29 518.31c-23.55,10.46 -105.72,-35.18 -129.08,-44.99 -26.26,-11.04 -42.97,-16.29 -75.23,-14.23 -67.02,4.26 -97.38,36.2 -107.67,101.71 -5.2,33.1 -0.21,67.98 9.01,99.96 17.37,60.23 45.3,110.21 75.4,156.28 47.08,72.07 159.9,193.87 225.79,243.25 -12.62,-25.68 -28.95,-47.27 -42.8,-74.13 -14.43,-27.97 -26.13,-53.7 -35.83,-84.2 -24.04,-75.51 -11.27,-233.25 82.41,-244.63 95.99,-11.66 116.02,141.84 144.15,185.63 39.24,-1.64 83.54,-61.74 92.56,-79.89 3.4,-15.19 102.61,-198.41 21.07,-286.49 -37.99,-41.06 -61.25,-31.33 -89,-20.81 -19.81,7.6 -52.36,32.93 -74.39,45.53 -33.12,18.94 -52.08,25.96 -96.39,17.01z"/>
      <path class="fil5" style="mask:url(#id8)" d="M368.6 393.43c356.91,0 646.25,294.58 646.25,657.97 0,363.39 -289.34,657.98 -646.25,657.98 -356.92,0 -646.26,-294.59 -646.26,-657.98 0,-363.39 289.34,-657.97 646.26,-657.97z"/>
     </g>
    </g>
    <path class="fil6" d="M135.02 379.15c-22.39,-23.2 -19.87,-57.31 -4.64,-85.15 18.3,-33.45 54.99,-64.94 84.74,-87.95 280.99,-217.33 687.76,-46.84 741.32,301.31 22.64,147.13 -24.84,273.04 -114.67,388.21 -51.53,66.08 -105.9,120.67 -166.81,177.63 -33.85,31.66 -67.35,63.15 -99.01,97.05 -22.62,24.21 -49.66,52.33 -85.99,48.65 -21.93,-2.22 -37.64,-14.65 -52.38,-29.81 -12.47,-12.84 -24.09,-26.21 -36.9,-38.81 -26.02,-25.61 -53.8,-49.93 -80.79,-74.55 -31.55,-28.76 -66.01,-59.88 -93.1,-92.82 -29.12,-35.41 -59.59,-69.65 -87.34,-106.18 -63.03,-82.98 -100.82,-165.09 -107.26,-270.52 -5.15,-84.19 20.55,-171.3 93.06,-220.79 3.23,-2.21 6.48,-4.29 9.77,-6.27z"/>
   </g>
  </g>
 </g>
</svg>
